<mxfile>
    <diagram id="ZsDdb_xmyVUKxEYyHhmg" name="Page-1">
        <mxGraphModel dx="1077" dy="683" grid="1" gridSize="10" guides="1" tooltips="1" connect="1" arrows="1" fold="1" page="1" pageScale="1" pageWidth="850" pageHeight="1100" math="0" shadow="0">
            <root>
                <mxCell id="0"/>
                <mxCell id="1" parent="0"/>
                <mxCell id="5" value="" style="rounded=1;whiteSpace=wrap;html=1;" vertex="1" parent="1">
                    <mxGeometry x="110" y="177.5" width="390" height="290" as="geometry"/>
                </mxCell>
                <mxCell id="2" value="" style="whiteSpace=wrap;html=1;aspect=fixed;fillColor=#6a00ff;strokeColor=#3700CC;fontColor=#ffffff;" vertex="1" parent="1">
                    <mxGeometry x="360" y="270" width="105" height="105" as="geometry"/>
                </mxCell>
                <mxCell id="3" value="" style="whiteSpace=wrap;html=1;aspect=fixed;fillColor=#1ba1e2;strokeColor=#006EAF;fontColor=#ffffff;" vertex="1" parent="1">
                    <mxGeometry x="140" y="270" width="105" height="105" as="geometry"/>
                </mxCell>
                <mxCell id="4" value="" style="whiteSpace=wrap;html=1;aspect=fixed;fillColor=#a20025;strokeColor=#6F0000;fontColor=#ffffff;" vertex="1" parent="1">
                    <mxGeometry x="640" y="270" width="105" height="105" as="geometry"/>
                </mxCell>
                <mxCell id="6" value="Server" style="text;strokeColor=none;fillColor=none;html=1;fontSize=24;fontStyle=1;verticalAlign=middle;align=center;" vertex="1" parent="1">
                    <mxGeometry x="252.5" y="190" width="100" height="40" as="geometry"/>
                </mxCell>
                <mxCell id="8" value="" style="line;strokeWidth=2;direction=south;html=1;rotation=-90;" vertex="1" parent="1">
                    <mxGeometry x="547.5" y="235" width="10" height="175" as="geometry"/>
                </mxCell>
                <mxCell id="9" value="" style="line;strokeWidth=2;direction=south;html=1;rotation=-90;" vertex="1" parent="1">
                    <mxGeometry x="297.5" y="262.5" width="10" height="120" as="geometry"/>
                </mxCell>
                <mxCell id="13" value="&lt;font style=&quot;font-size: 26px&quot;&gt;MariaDB&lt;/font&gt;" style="text;html=1;strokeColor=none;fillColor=none;align=center;verticalAlign=middle;whiteSpace=wrap;rounded=0;" vertex="1" parent="1">
                    <mxGeometry x="172.5" y="312.5" width="40" height="20" as="geometry"/>
                </mxCell>
                <mxCell id="14" value="&lt;font style=&quot;font-size: 26px&quot;&gt;Apache PHP&lt;/font&gt;" style="text;html=1;strokeColor=none;fillColor=none;align=center;verticalAlign=middle;whiteSpace=wrap;rounded=0;" vertex="1" parent="1">
                    <mxGeometry x="392.5" y="312.5" width="40" height="20" as="geometry"/>
                </mxCell>
                <mxCell id="15" value="&lt;font style=&quot;font-size: 26px&quot;&gt;Client Browser&lt;/font&gt;" style="text;html=1;strokeColor=none;fillColor=none;align=center;verticalAlign=middle;whiteSpace=wrap;rounded=0;" vertex="1" parent="1">
                    <mxGeometry x="672.5" y="303.75" width="40" height="37.5" as="geometry"/>
                </mxCell>
                <mxCell id="16" value="Views&lt;br&gt;Stored procedures" style="text;html=1;strokeColor=none;fillColor=none;align=center;verticalAlign=middle;whiteSpace=wrap;rounded=0;" vertex="1" parent="1">
                    <mxGeometry x="242.5" y="292.5" width="120" height="20" as="geometry"/>
                </mxCell>
                <mxCell id="17" value="HTTP Protocol" style="text;html=1;strokeColor=none;fillColor=none;align=center;verticalAlign=middle;whiteSpace=wrap;rounded=0;" vertex="1" parent="1">
                    <mxGeometry x="520" y="292.5" width="97.5" height="20" as="geometry"/>
                </mxCell>
            </root>
        </mxGraphModel>
    </diagram>
</mxfile>